<svg width="512" height="512" viewBox="0 0 512 512" fill="none" xmlns="http://www.w3.org/2000/svg">
<rect width="512" height="512" fill="#1E1E1E"/>
<path d="M255.987 20C250.465 20 245.987 24.477 245.987 30V89.493C245.987 95.016 250.465 99.493 255.987 99.493C261.509 99.493 265.987 95.016 265.987 89.493V30C265.987 24.477 261.509 20 255.987 20ZM199.324 105.381L175.398 81.476C171.489 77.572 165.159 77.575 161.255 81.482C157.352 85.389 157.355 91.72 161.261 95.624L185.188 119.529C186.115 120.458 187.217 121.195 188.43 121.697C189.643 122.199 190.943 122.457 192.256 122.455C193.57 122.457 194.872 122.198 196.086 121.695C197.3 121.192 198.402 120.454 199.33 119.523C203.233 115.616 203.23 109.285 199.324 105.381ZM350.738 81.5C346.831 77.595 340.499 77.599 336.595 81.505L311.158 106.962C307.255 110.869 307.258 117.2 311.164 121.104C312.091 122.033 313.193 122.77 314.407 123.273C315.62 123.775 316.92 124.033 318.233 124.031C319.547 124.033 320.849 123.774 322.063 123.271C323.277 122.768 324.379 122.03 325.307 121.099L350.744 95.642C354.647 91.735 354.644 85.404 350.738 81.5ZM446.5 284H438.43C445.016 275.415 448.943 264.688 448.943 253.057V238.944C448.943 210.853 426.09 188 398 188C369.91 188 347.057 210.853 347.057 238.943V249.914L271.826 174.682C269.798 172.648 267.231 171.236 264.428 170.612C261.624 169.987 258.7 170.177 256.001 171.158C253.301 170.177 250.378 169.987 247.574 170.612C244.77 171.236 242.203 172.649 240.175 174.683L164.945 249.914V238.943C164.943 210.853 142.09 188 114 188C85.91 188 63.057 210.853 63.057 238.943V253.056C63.057 264.688 66.984 275.414 73.57 283.999H65.5C29.383 284 0 313.383 0 349.5V482C0 487.523 4.478 492 10 492H52.25C53.25 492 54.214 491.849 55.125 491.576C56.0576 491.857 57.0261 491.999 58 492H170C175.522 492 180 487.523 180 482V448C180 442.477 175.522 438 170 438C164.478 438 160 442.477 160 448V472H68V358.053C68 352.53 63.522 348.053 58 348.053C52.478 348.053 48 352.53 48 358.053V472H20V349.5C20 324.411 40.411 304 65.5 304H135C137.644 304.003 140.18 302.956 142.052 301.089L142.072 301.072L245.941 197.202C245.26 217.97 238.8 237.973 227.154 255.27L161.706 352.468C160.595 354.119 160.001 356.063 160.001 358.053V369C160.001 374.523 164.479 379 170.001 379C175.523 379 180.001 374.523 180.001 369V361.105L243.744 266.439C248.574 259.26 252.679 251.62 256.001 243.631C259.322 251.62 263.428 259.26 268.258 266.439L332 361.105V482C332 487.523 336.478 492 342 492H454C455 492 455.964 491.849 456.875 491.576C457.808 491.857 458.776 491.999 459.75 492H502C507.522 492 512 487.523 512 482V349.5C512 313.383 482.617 284 446.5 284ZM144.943 253.056C144.943 270.119 131.063 284 114 284C96.937 284 83.057 270.119 83.057 253.057V238.944C83.057 221.881 96.938 208 114 208C131.062 208 144.943 221.881 144.943 238.943V253.056ZM367.057 238.943C367.057 221.881 380.938 208 398 208C415.062 208 428.943 221.881 428.943 238.943V253.056C428.943 270.119 415.063 284 398 284C380.937 284 367.057 270.119 367.057 253.057V238.943ZM492 472H464V398C464 392.477 459.522 388 454 388C448.478 388 444 392.477 444 398V472H352V358.053C352 356.063 351.406 354.119 350.295 352.468L284.847 255.271C273.201 237.974 266.741 217.971 266.06 197.203L369.929 301.072C370.061 301.204 370.185 301.315 370.305 301.414C372.137 303.08 374.524 304.002 377 304.002H446.5C471.589 304.002 492 324.413 492 349.502V472Z" fill="black"/>
<path d="M461.069 350.98C459.21 349.12 456.63 348.05 454 348.05C451.37 348.05 448.79 349.12 446.93 350.98C445.07 352.84 444 355.42 444 358.05C444 360.68 445.069 363.26 446.93 365.12C448.79 366.98 451.37 368.05 454 368.05C456.63 368.05 459.21 366.98 461.069 365.12C462.929 363.26 464 360.68 464 358.05C464 355.42 462.93 352.85 461.069 350.98ZM177.069 403.93C175.21 402.07 172.63 401 170 401C167.37 401 164.79 402.07 162.93 403.93C161.07 405.79 160 408.37 160 411C160 413.63 161.069 416.21 162.93 418.07C164.791 419.93 167.37 421 170 421C172.63 421 175.21 419.93 177.069 418.07C178.929 416.21 180 413.63 180 411C180 408.37 178.93 405.79 177.069 403.93Z" fill="black"/>
</svg>
